<mxfile host="app.diagrams.net" modified="2023-06-28T09:42:17.942Z" agent="Mozilla/5.0 (Windows NT 10.0; Win64; x64; rv:109.0) Gecko/20100101 Firefox/114.0" etag="saIQbEwRYiLXOJ1ibYwa" version="21.5.1" type="device">
  <diagram id="wEkoVnYtGdNWZhA1KiQT" name="Page-1">
    <mxGraphModel dx="1687" dy="932" grid="1" gridSize="10" guides="1" tooltips="1" connect="1" arrows="1" fold="1" page="1" pageScale="1" pageWidth="827" pageHeight="1169" background="none" math="0" shadow="0">
      <root>
        <mxCell id="0" />
        <mxCell id="1" parent="0" />
        <mxCell id="ORzxobJ269pv_FgzovFv-23" style="edgeStyle=orthogonalEdgeStyle;rounded=0;orthogonalLoop=1;jettySize=auto;html=1;exitX=1;exitY=0.5;exitDx=0;exitDy=0;entryX=0;entryY=0.5;entryDx=0;entryDy=0;" parent="1" source="JXJhJCuWqA1Dkq9rW7WM-6" target="JXJhJCuWqA1Dkq9rW7WM-15" edge="1">
          <mxGeometry relative="1" as="geometry" />
        </mxCell>
        <mxCell id="JXJhJCuWqA1Dkq9rW7WM-5" value="Evenement&#xa;" style="swimlane;fontStyle=1;childLayout=stackLayout;horizontal=1;startSize=30;horizontalStack=0;resizeParent=1;resizeParentMax=0;resizeLast=0;collapsible=1;marginBottom=0;align=center;verticalAlign=top;" parent="1" vertex="1">
          <mxGeometry x="100" y="530" width="140" height="300" as="geometry" />
        </mxCell>
        <mxCell id="JXJhJCuWqA1Dkq9rW7WM-60" value="id: int" style="text;strokeColor=none;fillColor=none;align=left;verticalAlign=middle;spacingLeft=4;spacingRight=4;overflow=hidden;points=[[0,0.5],[1,0.5]];portConstraint=eastwest;rotatable=0;fontStyle=4" parent="JXJhJCuWqA1Dkq9rW7WM-5" vertex="1">
          <mxGeometry y="30" width="140" height="30" as="geometry" />
        </mxCell>
        <mxCell id="JXJhJCuWqA1Dkq9rW7WM-6" value="# contract: int" style="text;strokeColor=none;fillColor=none;align=left;verticalAlign=middle;spacingLeft=4;spacingRight=4;overflow=hidden;points=[[0,0.5],[1,0.5]];portConstraint=eastwest;rotatable=0;" parent="JXJhJCuWqA1Dkq9rW7WM-5" vertex="1">
          <mxGeometry y="60" width="140" height="30" as="geometry" />
        </mxCell>
        <mxCell id="LrfdkBE1kAqBNuccLoCc-3" style="rounded=0;orthogonalLoop=1;jettySize=auto;html=1;exitX=1;exitY=0.5;exitDx=0;exitDy=0;" edge="1" parent="JXJhJCuWqA1Dkq9rW7WM-5" source="JXJhJCuWqA1Dkq9rW7WM-7">
          <mxGeometry relative="1" as="geometry">
            <mxPoint x="730" y="-20" as="targetPoint" />
            <Array as="points">
              <mxPoint x="190" y="135" />
              <mxPoint x="190" y="320" />
              <mxPoint x="730" y="320" />
              <mxPoint x="730" y="150" />
            </Array>
          </mxGeometry>
        </mxCell>
        <mxCell id="JXJhJCuWqA1Dkq9rW7WM-57" value="# support_contact: int" style="text;strokeColor=none;fillColor=none;align=left;verticalAlign=middle;spacingLeft=4;spacingRight=4;overflow=hidden;points=[[0,0.5],[1,0.5]];portConstraint=eastwest;rotatable=0;" parent="JXJhJCuWqA1Dkq9rW7WM-5" vertex="1">
          <mxGeometry y="90" width="140" height="30" as="geometry" />
        </mxCell>
        <mxCell id="JXJhJCuWqA1Dkq9rW7WM-7" value="# client: int" style="text;strokeColor=none;fillColor=none;align=left;verticalAlign=middle;spacingLeft=4;spacingRight=4;overflow=hidden;points=[[0,0.5],[1,0.5]];portConstraint=eastwest;rotatable=0;" parent="JXJhJCuWqA1Dkq9rW7WM-5" vertex="1">
          <mxGeometry y="120" width="140" height="30" as="geometry" />
        </mxCell>
        <mxCell id="ORzxobJ269pv_FgzovFv-34" value="attendees: int" style="text;strokeColor=none;fillColor=none;align=left;verticalAlign=middle;spacingLeft=4;spacingRight=4;overflow=hidden;points=[[0,0.5],[1,0.5]];portConstraint=eastwest;rotatable=0;" parent="JXJhJCuWqA1Dkq9rW7WM-5" vertex="1">
          <mxGeometry y="150" width="140" height="30" as="geometry" />
        </mxCell>
        <mxCell id="JXJhJCuWqA1Dkq9rW7WM-30" value="event_date: str" style="text;strokeColor=none;fillColor=none;align=left;verticalAlign=middle;spacingLeft=4;spacingRight=4;overflow=hidden;points=[[0,0.5],[1,0.5]];portConstraint=eastwest;rotatable=0;" parent="JXJhJCuWqA1Dkq9rW7WM-5" vertex="1">
          <mxGeometry y="180" width="140" height="30" as="geometry" />
        </mxCell>
        <mxCell id="ORzxobJ269pv_FgzovFv-37" value="notes: str" style="text;strokeColor=none;fillColor=none;align=left;verticalAlign=middle;spacingLeft=4;spacingRight=4;overflow=hidden;points=[[0,0.5],[1,0.5]];portConstraint=eastwest;rotatable=0;" parent="JXJhJCuWqA1Dkq9rW7WM-5" vertex="1">
          <mxGeometry y="210" width="140" height="30" as="geometry" />
        </mxCell>
        <mxCell id="ORzxobJ269pv_FgzovFv-38" value="date_created: date" style="text;strokeColor=none;fillColor=none;align=left;verticalAlign=middle;spacingLeft=4;spacingRight=4;overflow=hidden;points=[[0,0.5],[1,0.5]];portConstraint=eastwest;rotatable=0;" parent="JXJhJCuWqA1Dkq9rW7WM-5" vertex="1">
          <mxGeometry y="240" width="140" height="30" as="geometry" />
        </mxCell>
        <mxCell id="ORzxobJ269pv_FgzovFv-39" value="date_updated:  date" style="text;strokeColor=none;fillColor=none;align=left;verticalAlign=middle;spacingLeft=4;spacingRight=4;overflow=hidden;points=[[0,0.5],[1,0.5]];portConstraint=eastwest;rotatable=0;" parent="JXJhJCuWqA1Dkq9rW7WM-5" vertex="1">
          <mxGeometry y="270" width="140" height="30" as="geometry" />
        </mxCell>
        <mxCell id="8X9xJVfvZcuJXcQOC_To-7" style="edgeStyle=orthogonalEdgeStyle;rounded=0;orthogonalLoop=1;jettySize=auto;html=1;exitX=1;exitY=0.25;exitDx=0;exitDy=0;entryX=1;entryY=0.5;entryDx=0;entryDy=0;" parent="1" source="JXJhJCuWqA1Dkq9rW7WM-13" target="JXJhJCuWqA1Dkq9rW7WM-62" edge="1">
          <mxGeometry relative="1" as="geometry">
            <Array as="points">
              <mxPoint x="630" y="628" />
              <mxPoint x="630" y="165" />
            </Array>
          </mxGeometry>
        </mxCell>
        <mxCell id="JXJhJCuWqA1Dkq9rW7WM-13" value="Contract&#xa;" style="swimlane;fontStyle=1;childLayout=stackLayout;horizontal=1;startSize=30;horizontalStack=0;resizeParent=1;resizeParentMax=0;resizeLast=0;collapsible=1;marginBottom=0;align=center;verticalAlign=top;" parent="1" vertex="1">
          <mxGeometry x="470" y="560" width="140" height="270" as="geometry" />
        </mxCell>
        <mxCell id="JXJhJCuWqA1Dkq9rW7WM-15" value="id: int" style="text;strokeColor=none;fillColor=none;align=left;verticalAlign=middle;spacingLeft=4;spacingRight=4;overflow=hidden;points=[[0,0.5],[1,0.5]];portConstraint=eastwest;rotatable=0;fontStyle=4" parent="JXJhJCuWqA1Dkq9rW7WM-13" vertex="1">
          <mxGeometry y="30" width="140" height="30" as="geometry" />
        </mxCell>
        <mxCell id="JXJhJCuWqA1Dkq9rW7WM-16" value="# sales_contact: int" style="text;strokeColor=none;fillColor=none;align=left;verticalAlign=middle;spacingLeft=4;spacingRight=4;overflow=hidden;points=[[0,0.5],[1,0.5]];portConstraint=eastwest;rotatable=0;" parent="JXJhJCuWqA1Dkq9rW7WM-13" vertex="1">
          <mxGeometry y="60" width="140" height="30" as="geometry" />
        </mxCell>
        <mxCell id="JXJhJCuWqA1Dkq9rW7WM-14" value="# client: int" style="text;strokeColor=none;fillColor=none;align=left;verticalAlign=middle;spacingLeft=4;spacingRight=4;overflow=hidden;points=[[0,0.5],[1,0.5]];portConstraint=eastwest;rotatable=0;" parent="JXJhJCuWqA1Dkq9rW7WM-13" vertex="1">
          <mxGeometry y="90" width="140" height="30" as="geometry" />
        </mxCell>
        <mxCell id="JXJhJCuWqA1Dkq9rW7WM-58" value="status: bool" style="text;strokeColor=none;fillColor=none;align=left;verticalAlign=middle;spacingLeft=4;spacingRight=4;overflow=hidden;points=[[0,0.5],[1,0.5]];portConstraint=eastwest;rotatable=0;" parent="JXJhJCuWqA1Dkq9rW7WM-13" vertex="1">
          <mxGeometry y="120" width="140" height="30" as="geometry" />
        </mxCell>
        <mxCell id="ORzxobJ269pv_FgzovFv-28" value="amount: float" style="text;strokeColor=none;fillColor=none;align=left;verticalAlign=middle;spacingLeft=4;spacingRight=4;overflow=hidden;points=[[0,0.5],[1,0.5]];portConstraint=eastwest;rotatable=0;" parent="JXJhJCuWqA1Dkq9rW7WM-13" vertex="1">
          <mxGeometry y="150" width="140" height="30" as="geometry" />
        </mxCell>
        <mxCell id="ORzxobJ269pv_FgzovFv-29" value="payement_due: date" style="text;strokeColor=none;fillColor=none;align=left;verticalAlign=middle;spacingLeft=4;spacingRight=4;overflow=hidden;points=[[0,0.5],[1,0.5]];portConstraint=eastwest;rotatable=0;" parent="JXJhJCuWqA1Dkq9rW7WM-13" vertex="1">
          <mxGeometry y="180" width="140" height="30" as="geometry" />
        </mxCell>
        <mxCell id="ORzxobJ269pv_FgzovFv-30" value="created_date: date" style="text;strokeColor=none;fillColor=none;align=left;verticalAlign=middle;spacingLeft=4;spacingRight=4;overflow=hidden;points=[[0,0.5],[1,0.5]];portConstraint=eastwest;rotatable=0;" parent="JXJhJCuWqA1Dkq9rW7WM-13" vertex="1">
          <mxGeometry y="210" width="140" height="30" as="geometry" />
        </mxCell>
        <mxCell id="ORzxobJ269pv_FgzovFv-31" value="updated_date: date" style="text;strokeColor=none;fillColor=none;align=left;verticalAlign=middle;spacingLeft=4;spacingRight=4;overflow=hidden;points=[[0,0.5],[1,0.5]];portConstraint=eastwest;rotatable=0;" parent="JXJhJCuWqA1Dkq9rW7WM-13" vertex="1">
          <mxGeometry y="240" width="140" height="30" as="geometry" />
        </mxCell>
        <mxCell id="JXJhJCuWqA1Dkq9rW7WM-48" value="User" style="swimlane;fontStyle=1;childLayout=stackLayout;horizontal=1;startSize=30;horizontalStack=0;resizeParent=1;resizeParentMax=0;resizeLast=0;collapsible=1;marginBottom=0;direction=east;" parent="1" vertex="1">
          <mxGeometry x="100" y="120" width="146" height="300" as="geometry" />
        </mxCell>
        <mxCell id="JXJhJCuWqA1Dkq9rW7WM-62" value="&#xa;id : int&#xa;" style="text;strokeColor=none;fillColor=none;align=left;verticalAlign=middle;spacingLeft=4;spacingRight=4;overflow=hidden;points=[[0,0.5],[1,0.5]];portConstraint=eastwest;rotatable=0;fontStyle=4" parent="JXJhJCuWqA1Dkq9rW7WM-48" vertex="1">
          <mxGeometry y="30" width="146" height="30" as="geometry" />
        </mxCell>
        <mxCell id="JXJhJCuWqA1Dkq9rW7WM-50" value="email: str" style="text;strokeColor=none;fillColor=none;align=left;verticalAlign=middle;spacingLeft=4;spacingRight=4;overflow=hidden;points=[[0,0.5],[1,0.5]];portConstraint=eastwest;rotatable=0;" parent="JXJhJCuWqA1Dkq9rW7WM-48" vertex="1">
          <mxGeometry y="60" width="146" height="30" as="geometry" />
        </mxCell>
        <mxCell id="JXJhJCuWqA1Dkq9rW7WM-51" value="password: str" style="text;strokeColor=none;fillColor=none;align=left;verticalAlign=middle;spacingLeft=4;spacingRight=4;overflow=hidden;points=[[0,0.5],[1,0.5]];portConstraint=eastwest;rotatable=0;" parent="JXJhJCuWqA1Dkq9rW7WM-48" vertex="1">
          <mxGeometry y="90" width="146" height="30" as="geometry" />
        </mxCell>
        <mxCell id="JXJhJCuWqA1Dkq9rW7WM-54" value="first_name: str" style="text;strokeColor=none;fillColor=none;align=left;verticalAlign=middle;spacingLeft=4;spacingRight=4;overflow=hidden;points=[[0,0.5],[1,0.5]];portConstraint=eastwest;rotatable=0;" parent="JXJhJCuWqA1Dkq9rW7WM-48" vertex="1">
          <mxGeometry y="120" width="146" height="30" as="geometry" />
        </mxCell>
        <mxCell id="ORzxobJ269pv_FgzovFv-1" value="last_name: str" style="text;strokeColor=none;fillColor=none;align=left;verticalAlign=middle;spacingLeft=4;spacingRight=4;overflow=hidden;points=[[0,0.5],[1,0.5]];portConstraint=eastwest;rotatable=0;" parent="JXJhJCuWqA1Dkq9rW7WM-48" vertex="1">
          <mxGeometry y="150" width="146" height="30" as="geometry" />
        </mxCell>
        <mxCell id="ORzxobJ269pv_FgzovFv-2" value="role: str" style="text;strokeColor=none;fillColor=none;align=left;verticalAlign=middle;spacingLeft=4;spacingRight=4;overflow=hidden;points=[[0,0.5],[1,0.5]];portConstraint=eastwest;rotatable=0;" parent="JXJhJCuWqA1Dkq9rW7WM-48" vertex="1">
          <mxGeometry y="180" width="146" height="30" as="geometry" />
        </mxCell>
        <mxCell id="ORzxobJ269pv_FgzovFv-3" value="is_active: bool" style="text;strokeColor=none;fillColor=none;align=left;verticalAlign=middle;spacingLeft=4;spacingRight=4;overflow=hidden;points=[[0,0.5],[1,0.5]];portConstraint=eastwest;rotatable=0;" parent="JXJhJCuWqA1Dkq9rW7WM-48" vertex="1">
          <mxGeometry y="210" width="146" height="30" as="geometry" />
        </mxCell>
        <mxCell id="ORzxobJ269pv_FgzovFv-4" value="is_staff: bool" style="text;strokeColor=none;fillColor=none;align=left;verticalAlign=middle;spacingLeft=4;spacingRight=4;overflow=hidden;points=[[0,0.5],[1,0.5]];portConstraint=eastwest;rotatable=0;" parent="JXJhJCuWqA1Dkq9rW7WM-48" vertex="1">
          <mxGeometry y="240" width="146" height="30" as="geometry" />
        </mxCell>
        <mxCell id="ORzxobJ269pv_FgzovFv-5" value="is_admin: bool" style="text;strokeColor=none;fillColor=none;align=left;verticalAlign=middle;spacingLeft=4;spacingRight=4;overflow=hidden;points=[[0,0.5],[1,0.5]];portConstraint=eastwest;rotatable=0;" parent="JXJhJCuWqA1Dkq9rW7WM-48" vertex="1">
          <mxGeometry y="270" width="146" height="30" as="geometry" />
        </mxCell>
        <mxCell id="ORzxobJ269pv_FgzovFv-6" value="Client" style="swimlane;fontStyle=1;childLayout=stackLayout;horizontal=1;startSize=30;horizontalStack=0;resizeParent=1;resizeParentMax=0;resizeLast=0;collapsible=1;marginBottom=0;" parent="1" vertex="1">
          <mxGeometry x="870" y="120" width="146" height="450" as="geometry" />
        </mxCell>
        <mxCell id="ORzxobJ269pv_FgzovFv-7" value="id: int" style="text;strokeColor=none;fillColor=none;align=left;verticalAlign=middle;spacingLeft=4;spacingRight=4;overflow=hidden;points=[[0,0.5],[1,0.5]];portConstraint=eastwest;rotatable=0;fontStyle=4" parent="ORzxobJ269pv_FgzovFv-6" vertex="1">
          <mxGeometry y="30" width="146" height="30" as="geometry" />
        </mxCell>
        <mxCell id="LrfdkBE1kAqBNuccLoCc-4" value="# sales_contact: int" style="text;strokeColor=none;fillColor=none;align=left;verticalAlign=middle;spacingLeft=4;spacingRight=4;overflow=hidden;points=[[0,0.5],[1,0.5]];portConstraint=eastwest;rotatable=0;" vertex="1" parent="ORzxobJ269pv_FgzovFv-6">
          <mxGeometry y="60" width="146" height="30" as="geometry" />
        </mxCell>
        <mxCell id="ORzxobJ269pv_FgzovFv-8" value="is_prospect: bool" style="text;strokeColor=none;fillColor=none;align=left;verticalAlign=middle;spacingLeft=4;spacingRight=4;overflow=hidden;points=[[0,0.5],[1,0.5]];portConstraint=eastwest;rotatable=0;" parent="ORzxobJ269pv_FgzovFv-6" vertex="1">
          <mxGeometry y="90" width="146" height="30" as="geometry" />
        </mxCell>
        <mxCell id="ORzxobJ269pv_FgzovFv-9" value="first_name: str" style="text;strokeColor=none;fillColor=none;align=left;verticalAlign=middle;spacingLeft=4;spacingRight=4;overflow=hidden;points=[[0,0.5],[1,0.5]];portConstraint=eastwest;rotatable=0;" parent="ORzxobJ269pv_FgzovFv-6" vertex="1">
          <mxGeometry y="120" width="146" height="30" as="geometry" />
        </mxCell>
        <mxCell id="ORzxobJ269pv_FgzovFv-10" value="last_name: str" style="text;strokeColor=none;fillColor=none;align=left;verticalAlign=middle;spacingLeft=4;spacingRight=4;overflow=hidden;points=[[0,0.5],[1,0.5]];portConstraint=eastwest;rotatable=0;" parent="ORzxobJ269pv_FgzovFv-6" vertex="1">
          <mxGeometry y="150" width="146" height="30" as="geometry" />
        </mxCell>
        <mxCell id="ORzxobJ269pv_FgzovFv-11" value="tel: str" style="text;strokeColor=none;fillColor=none;align=left;verticalAlign=middle;spacingLeft=4;spacingRight=4;overflow=hidden;points=[[0,0.5],[1,0.5]];portConstraint=eastwest;rotatable=0;fontStyle=0" parent="ORzxobJ269pv_FgzovFv-6" vertex="1">
          <mxGeometry y="180" width="146" height="30" as="geometry" />
        </mxCell>
        <mxCell id="ORzxobJ269pv_FgzovFv-12" value="mobile: str" style="text;strokeColor=none;fillColor=none;align=left;verticalAlign=middle;spacingLeft=4;spacingRight=4;overflow=hidden;points=[[0,0.5],[1,0.5]];portConstraint=eastwest;rotatable=0;fontStyle=0" parent="ORzxobJ269pv_FgzovFv-6" vertex="1">
          <mxGeometry y="210" width="146" height="30" as="geometry" />
        </mxCell>
        <mxCell id="ORzxobJ269pv_FgzovFv-13" value="email: str" style="text;strokeColor=none;fillColor=none;align=left;verticalAlign=middle;spacingLeft=4;spacingRight=4;overflow=hidden;points=[[0,0.5],[1,0.5]];portConstraint=eastwest;rotatable=0;fontStyle=0" parent="ORzxobJ269pv_FgzovFv-6" vertex="1">
          <mxGeometry y="240" width="146" height="30" as="geometry" />
        </mxCell>
        <mxCell id="ORzxobJ269pv_FgzovFv-14" value="company_name: str" style="text;strokeColor=none;fillColor=none;align=left;verticalAlign=middle;spacingLeft=4;spacingRight=4;overflow=hidden;points=[[0,0.5],[1,0.5]];portConstraint=eastwest;rotatable=0;fontStyle=0" parent="ORzxobJ269pv_FgzovFv-6" vertex="1">
          <mxGeometry y="270" width="146" height="30" as="geometry" />
        </mxCell>
        <mxCell id="ORzxobJ269pv_FgzovFv-15" value="facebook: str" style="text;strokeColor=none;fillColor=none;align=left;verticalAlign=middle;spacingLeft=4;spacingRight=4;overflow=hidden;points=[[0,0.5],[1,0.5]];portConstraint=eastwest;rotatable=0;fontStyle=0" parent="ORzxobJ269pv_FgzovFv-6" vertex="1">
          <mxGeometry y="300" width="146" height="30" as="geometry" />
        </mxCell>
        <mxCell id="ORzxobJ269pv_FgzovFv-16" value="twitter: str" style="text;strokeColor=none;fillColor=none;align=left;verticalAlign=middle;spacingLeft=4;spacingRight=4;overflow=hidden;points=[[0,0.5],[1,0.5]];portConstraint=eastwest;rotatable=0;fontStyle=0" parent="ORzxobJ269pv_FgzovFv-6" vertex="1">
          <mxGeometry y="330" width="146" height="30" as="geometry" />
        </mxCell>
        <mxCell id="ORzxobJ269pv_FgzovFv-17" value="linkedin: str" style="text;strokeColor=none;fillColor=none;align=left;verticalAlign=middle;spacingLeft=4;spacingRight=4;overflow=hidden;points=[[0,0.5],[1,0.5]];portConstraint=eastwest;rotatable=0;fontStyle=0" parent="ORzxobJ269pv_FgzovFv-6" vertex="1">
          <mxGeometry y="360" width="146" height="30" as="geometry" />
        </mxCell>
        <mxCell id="ORzxobJ269pv_FgzovFv-18" value="created_date: date" style="text;strokeColor=none;fillColor=none;align=left;verticalAlign=middle;spacingLeft=4;spacingRight=4;overflow=hidden;points=[[0,0.5],[1,0.5]];portConstraint=eastwest;rotatable=0;fontStyle=0" parent="ORzxobJ269pv_FgzovFv-6" vertex="1">
          <mxGeometry y="390" width="146" height="30" as="geometry" />
        </mxCell>
        <mxCell id="ORzxobJ269pv_FgzovFv-19" value="updated_date: date" style="text;strokeColor=none;fillColor=none;align=left;verticalAlign=middle;spacingLeft=4;spacingRight=4;overflow=hidden;points=[[0,0.5],[1,0.5]];portConstraint=eastwest;rotatable=0;fontStyle=0" parent="ORzxobJ269pv_FgzovFv-6" vertex="1">
          <mxGeometry y="420" width="146" height="30" as="geometry" />
        </mxCell>
        <mxCell id="8X9xJVfvZcuJXcQOC_To-3" value="géré par" style="text;html=1;align=center;verticalAlign=middle;resizable=0;points=[];autosize=1;strokeColor=none;fillColor=none;" parent="1" vertex="1">
          <mxGeometry x="305" y="128" width="70" height="30" as="geometry" />
        </mxCell>
        <mxCell id="8X9xJVfvZcuJXcQOC_To-4" value="1 ... 1" style="text;html=1;align=center;verticalAlign=middle;resizable=0;points=[];autosize=1;strokeColor=none;fillColor=none;" parent="1" vertex="1">
          <mxGeometry x="315" y="170" width="50" height="30" as="geometry" />
        </mxCell>
        <mxCell id="8X9xJVfvZcuJXcQOC_To-5" value="&lt;div&gt;1 ... *&lt;/div&gt;&lt;div&gt;&lt;br&gt;&lt;/div&gt;" style="text;html=1;align=center;verticalAlign=middle;resizable=0;points=[];autosize=1;strokeColor=none;fillColor=none;" parent="1" vertex="1">
          <mxGeometry x="580" y="510" width="50" height="40" as="geometry" />
        </mxCell>
        <mxCell id="8X9xJVfvZcuJXcQOC_To-8" style="edgeStyle=orthogonalEdgeStyle;rounded=0;orthogonalLoop=1;jettySize=auto;html=1;exitX=1;exitY=0.5;exitDx=0;exitDy=0;entryX=0;entryY=0.5;entryDx=0;entryDy=0;" parent="1" source="JXJhJCuWqA1Dkq9rW7WM-14" target="ORzxobJ269pv_FgzovFv-7" edge="1">
          <mxGeometry relative="1" as="geometry">
            <Array as="points">
              <mxPoint x="830" y="665" />
              <mxPoint x="830" y="165" />
            </Array>
          </mxGeometry>
        </mxCell>
        <mxCell id="8X9xJVfvZcuJXcQOC_To-9" value="Lié à " style="text;html=1;align=center;verticalAlign=middle;resizable=0;points=[];autosize=1;strokeColor=none;fillColor=none;" parent="1" vertex="1">
          <mxGeometry x="295" y="550" width="50" height="30" as="geometry" />
        </mxCell>
        <mxCell id="8X9xJVfvZcuJXcQOC_To-10" value="1 ... 1" style="text;html=1;align=center;verticalAlign=middle;resizable=0;points=[];autosize=1;strokeColor=none;fillColor=none;" parent="1" vertex="1">
          <mxGeometry x="295" y="570" width="50" height="30" as="geometry" />
        </mxCell>
        <mxCell id="8X9xJVfvZcuJXcQOC_To-11" value="Organisé pour" style="text;html=1;align=center;verticalAlign=middle;resizable=0;points=[];autosize=1;strokeColor=none;fillColor=none;" parent="1" vertex="1">
          <mxGeometry x="715" y="780" width="100" height="30" as="geometry" />
        </mxCell>
        <mxCell id="8X9xJVfvZcuJXcQOC_To-12" value="1 ... 1" style="text;html=1;align=center;verticalAlign=middle;resizable=0;points=[];autosize=1;strokeColor=none;fillColor=none;" parent="1" vertex="1">
          <mxGeometry x="750" y="810" width="50" height="30" as="geometry" />
        </mxCell>
        <mxCell id="8X9xJVfvZcuJXcQOC_To-13" value="1 ... *" style="text;html=1;align=center;verticalAlign=middle;resizable=0;points=[];autosize=1;strokeColor=none;fillColor=none;" parent="1" vertex="1">
          <mxGeometry x="640" y="625" width="50" height="30" as="geometry" />
        </mxCell>
        <mxCell id="8X9xJVfvZcuJXcQOC_To-14" value="signé par" style="text;html=1;align=center;verticalAlign=middle;resizable=0;points=[];autosize=1;strokeColor=none;fillColor=none;" parent="1" vertex="1">
          <mxGeometry x="735" y="595" width="80" height="30" as="geometry" />
        </mxCell>
        <mxCell id="8X9xJVfvZcuJXcQOC_To-15" value="Géré par" style="text;html=1;align=center;verticalAlign=middle;resizable=0;points=[];autosize=1;strokeColor=none;fillColor=none;" parent="1" vertex="1">
          <mxGeometry x="10" y="150" width="70" height="30" as="geometry" />
        </mxCell>
        <mxCell id="8X9xJVfvZcuJXcQOC_To-16" value="1 ... 1" style="text;html=1;align=center;verticalAlign=middle;resizable=0;points=[];autosize=1;strokeColor=none;fillColor=none;" parent="1" vertex="1">
          <mxGeometry x="20" y="180" width="50" height="30" as="geometry" />
        </mxCell>
        <mxCell id="8X9xJVfvZcuJXcQOC_To-17" value="&lt;div&gt;1 ... *&lt;/div&gt;&lt;div&gt;&lt;br&gt;&lt;/div&gt;" style="text;html=1;align=center;verticalAlign=middle;resizable=0;points=[];autosize=1;strokeColor=none;fillColor=none;" parent="1" vertex="1">
          <mxGeometry x="20" y="625" width="50" height="40" as="geometry" />
        </mxCell>
        <mxCell id="8X9xJVfvZcuJXcQOC_To-18" value="1 ... *" style="text;html=1;align=center;verticalAlign=middle;resizable=0;points=[];autosize=1;strokeColor=none;fillColor=none;" parent="1" vertex="1">
          <mxGeometry x="315" y="810" width="50" height="30" as="geometry" />
        </mxCell>
        <mxCell id="8X9xJVfvZcuJXcQOC_To-20" style="edgeStyle=orthogonalEdgeStyle;rounded=0;orthogonalLoop=1;jettySize=auto;html=1;exitX=0;exitY=0.5;exitDx=0;exitDy=0;entryX=-0.021;entryY=0.733;entryDx=0;entryDy=0;entryPerimeter=0;" parent="1" source="JXJhJCuWqA1Dkq9rW7WM-57" target="JXJhJCuWqA1Dkq9rW7WM-62" edge="1">
          <mxGeometry relative="1" as="geometry" />
        </mxCell>
        <mxCell id="8X9xJVfvZcuJXcQOC_To-21" value="1 ... 1" style="text;html=1;align=center;verticalAlign=middle;resizable=0;points=[];autosize=1;strokeColor=none;fillColor=none;" parent="1" vertex="1">
          <mxGeometry x="750" y="620" width="50" height="30" as="geometry" />
        </mxCell>
        <mxCell id="LrfdkBE1kAqBNuccLoCc-5" style="edgeStyle=orthogonalEdgeStyle;rounded=0;orthogonalLoop=1;jettySize=auto;html=1;exitX=1;exitY=0.5;exitDx=0;exitDy=0;entryX=0.5;entryY=0;entryDx=0;entryDy=0;" edge="1" parent="1" source="LrfdkBE1kAqBNuccLoCc-4" target="JXJhJCuWqA1Dkq9rW7WM-48">
          <mxGeometry relative="1" as="geometry">
            <mxPoint x="170" y="100" as="targetPoint" />
            <Array as="points">
              <mxPoint x="1036" y="195" />
              <mxPoint x="1036" y="100" />
              <mxPoint x="173" y="100" />
            </Array>
          </mxGeometry>
        </mxCell>
        <mxCell id="LrfdkBE1kAqBNuccLoCc-6" value="Suivit par" style="text;html=1;align=center;verticalAlign=middle;resizable=0;points=[];autosize=1;strokeColor=none;fillColor=none;" vertex="1" parent="1">
          <mxGeometry x="225" y="30" width="70" height="30" as="geometry" />
        </mxCell>
        <mxCell id="LrfdkBE1kAqBNuccLoCc-8" value="1 ... 1" style="text;html=1;align=center;verticalAlign=middle;resizable=0;points=[];autosize=1;strokeColor=none;fillColor=none;" vertex="1" parent="1">
          <mxGeometry x="235" y="60" width="50" height="30" as="geometry" />
        </mxCell>
        <mxCell id="LrfdkBE1kAqBNuccLoCc-10" value="&lt;div&gt;1 ... *&lt;/div&gt;&lt;div&gt;&lt;br&gt;&lt;/div&gt;" style="text;html=1;align=center;verticalAlign=middle;resizable=0;points=[];autosize=1;strokeColor=none;fillColor=none;" vertex="1" parent="1">
          <mxGeometry x="918" y="70" width="50" height="40" as="geometry" />
        </mxCell>
      </root>
    </mxGraphModel>
  </diagram>
</mxfile>
